# Blender 3.6.1
# www.blender.org
o Object001.009
v 0.358407 0.042473 -0.083066
v 0.364674 0.020169 -0.166244
v 0.356711 0.067597 0.001006
v 0.095976 0.249436 -0.021499
v 0.178248 0.230536 -0.006768
v 0.111797 0.214871 -0.099219
v 0.183253 0.195404 -0.081654
v 0.250056 0.163548 -0.058395
v 0.308747 0.120251 -0.029762
v 0.312353 0.091709 -0.112141
v 0.254142 0.134854 -0.139153
v 0.186459 0.167280 -0.162188
v 0.109327 0.188008 -0.184083
v -0.001213 0.197889 -0.193656
v 0.318957 0.066245 -0.198285
v 0.257758 0.108790 -0.223121
v 0.187535 0.141783 -0.242443
v 0.103461 0.165159 -0.255102
v -0.001213 0.173805 -0.266217
v 0.326556 0.036582 -0.292108
v 0.258211 0.079703 -0.309744
v 0.190905 0.109439 -0.324319
v 0.099755 0.131194 -0.342639
v -0.001213 0.141075 -0.344877
v 0.310365 0.008995 -0.393862
v 0.236233 0.053229 -0.399645
v 0.166141 0.077776 -0.413231
v -0.001213 0.108654 -0.412189
v -0.001213 0.020268 -0.625938
v 0.100991 0.029647 -0.635818
v 0.180240 0.024135 -0.685104
v 0.263047 0.010388 -0.860758
v 0.084083 0.018863 -1.101460
v 0.076979 0.093219 -1.076276
v 0.160392 0.017476 -1.071657
v 0.218617 0.021495 -1.018789
v 0.154823 0.093371 -1.050206
v 0.213510 0.090588 -0.999901
v 0.255341 0.019749 -0.944102
v 0.248301 0.080646 -0.927424
v 0.257236 0.066842 -0.846408
v 0.239354 0.049386 -0.762914
v 0.077199 0.170858 -1.031232
v 0.143988 0.163930 -1.011648
v 0.200345 0.153305 -0.965753
v 0.233879 0.137315 -0.900539
v 0.245654 0.120709 -0.827210
v 0.235247 0.103199 -0.749311
v 0.199820 0.078123 -0.678175
v 0.076450 0.231973 -0.975685
v 0.139489 0.219736 -0.955494
v 0.186352 0.200717 -0.918886
v 0.213536 0.184247 -0.872147
v -0.001213 0.284037 -0.912401
v 0.067642 0.278788 -0.908309
v 0.127854 0.262422 -0.884163
v 0.188991 0.221509 -0.852923
v 0.227957 0.166975 -0.804719
v 0.222653 0.149726 -0.731402
v 0.203194 0.211321 -0.779396
v 0.200107 0.191636 -0.708958
v 0.065172 0.306885 -0.816990
v 0.124148 0.281567 -0.813024
v 0.061777 0.311208 -0.738639
v 0.117973 0.286198 -0.746435
v 0.115194 0.273229 -0.680126
v 0.059615 0.297005 -0.671249
v 0.160892 0.253777 -0.827570
v 0.168611 0.250998 -0.759134
v 0.170155 0.231931 -0.694793
v 0.121678 0.228458 -0.613586
v 0.062085 0.258408 -0.601543
v 0.153791 0.205608 -0.628408
v 0.185198 0.170073 -0.651760
v 0.201201 0.125118 -0.668211
v -0.001213 0.148485 -0.506750
v 0.067642 0.152499 -0.523116
v 0.052204 0.093138 -0.509530
v 0.109945 0.122085 -0.548088
v 0.053748 0.070906 -0.524081
v -0.001213 0.063090 -0.503355
v -0.001213 0.211784 -0.541642
v 0.067180 0.206226 -0.552758
v 0.129088 0.192639 -0.588576
v 0.159657 0.141654 -0.602779
v 0.164907 0.108731 -0.617755
v 0.114577 0.084184 -0.576225
v 0.149777 0.066738 -0.631340
v 0.094197 0.054541 -0.598456
v 0.046338 0.051839 -0.556463
v -0.001213 0.038562 -0.594133
v -0.001213 0.043502 -0.558162
v 0.089874 0.094759 -0.420622
v 0.074745 0.045355 -0.505618
v 0.148232 0.021425 -0.514585
v -0.001213 0.062029 -0.490695
v -0.001213 0.003825 -0.557543
v -0.001213 0.255938 -0.027381
v -0.001213 0.223517 -0.109978
v -0.001213 0.016966 -1.110556
v -0.001213 0.093779 -1.082333
v -0.001213 0.173482 -1.035693
v -0.001213 0.233861 -0.982261
v -0.001213 0.315531 -0.828261
v -0.001213 0.322015 -0.738291
v -0.001213 0.308738 -0.673064
v -0.001213 0.271068 -0.602470
v -0.001213 0.089818 -0.493165
v -0.001213 0.049292 -0.526937
v 0.091669 0.003106 -0.651483
v 0.085279 0.003106 -1.103137
v 0.216474 0.003107 -0.740921
v 0.382243 0.003106 -0.063597
v 0.222763 0.003106 -0.496491
v 0.218472 0.003107 -1.019400
v -0.001213 0.003107 -1.112446
v 0.040426 0.003107 -0.556003
v 0.365944 0.003106 -0.271921
v 0.255107 0.003106 -0.945491
v 0.255594 0.003107 -0.833007
v 0.317707 0.003106 -0.393268
v 0.168004 0.003107 -0.685715
v 0.240623 0.003106 -0.775004
v 0.195397 0.003106 -0.514915
v -0.001213 0.003106 -0.639908
v 0.159973 0.003107 -1.072828
v 0.139196 0.003106 -0.538840
v 0.375690 0.003106 -0.211822
v 0.263135 0.003107 -0.862536
v 0.377080 0.003106 -0.144776
v 0.310153 0.003106 -0.404404
v 0.359645 0.003106 -0.290888
v 0.353947 0.070631 -0.000767
v 0.356747 0.067067 -0.000767
v 0.310157 0.133878 -0.000767
v 0.195993 0.223031 -0.000767
v -0.001213 0.274132 -0.000767
v 0.250142 0.191299 -0.000767
v 0.095998 0.263127 -0.000767
v 0.390412 0.003106 -0.000767
v 0.178348 0.234459 -0.000768
vn 0.3865 0.8114 -0.4384
vn 0.1879 0.8678 -0.4601
vn 0.1783 0.8184 -0.5463
vn 0.3640 0.7766 -0.5142
vn 0.5728 0.7631 -0.2992
vn 0.4018 0.8564 -0.3241
vn 0.4834 0.7908 -0.3753
vn 0.5580 0.7515 -0.3521
vn 0.2144 0.9177 -0.3345
vn 0.1012 0.9367 -0.3351
vn 0.0942 0.8791 -0.4672
vn 0.2148 0.9285 -0.3028
vn 0.1086 0.9461 -0.3053
vn 0.4023 0.8717 -0.2797
vn 0.5626 0.7927 -0.2349
vn 0.7028 0.6886 -0.1788
vn 0.7198 0.6443 -0.2583
vn 0.7751 0.6037 -0.1865
vn 0.8069 0.5700 -0.1553
vn 0.8196 0.5601 -0.1204
vn 0.2044 0.9199 -0.3347
vn 0.1092 0.9326 -0.3441
vn 0.3839 0.8731 -0.3006
vn 0.5386 0.8071 -0.2420
vn 0.6721 0.7212 -0.1678
vn 0.7851 0.6139 -0.0820
vn 0.1921 0.8990 -0.3936
vn 0.1023 0.9100 -0.4018
vn 0.3627 0.8606 -0.3574
vn 0.5022 0.8089 -0.3056
vn 0.6360 0.7329 -0.2418
vn 0.7302 0.6742 -0.1111
vn 0.7042 0.6881 -0.1749
vn 0.4407 0.7984 -0.4103
vn 0.3061 0.8394 -0.4491
vn 0.5702 0.7346 -0.3678
vn 0.3135 -0.6477 0.6944
vn 0.2527 -0.5269 0.8115
vn 0.5203 -0.4463 0.7281
vn 0.6627 -0.3759 0.6477
vn 0.1889 0.4094 -0.8926
vn 0.2228 0.2177 -0.9502
vn 0.0952 0.2274 -0.9691
vn 0.0766 0.4192 -0.9047
vn 0.4711 0.3811 -0.7955
vn 0.5134 0.1695 -0.8412
vn 0.7876 0.1280 -0.6027
vn 0.7615 0.3310 -0.5573
vn 0.9582 0.0919 -0.2710
vn 0.9594 0.0113 -0.2820
vn 0.7963 0.0226 -0.6045
vn 0.9383 0.2474 -0.2417
vn 0.9902 0.1246 0.0633
vn 0.9967 0.0262 0.0769
vn 0.9252 -0.0632 0.3741
vn 0.9212 -0.0523 0.3854
vn 0.9721 0.0008 0.2345
vn 0.7997 -0.1590 0.5790
vn 0.0703 0.5869 -0.8066
vn 0.1836 0.5850 -0.7899
vn 0.4453 0.5670 -0.6929
vn 0.7231 0.5061 -0.4701
vn 0.8963 0.3953 -0.2008
vn 0.9661 0.2540 0.0473
vn 0.9526 0.0371 0.3021
vn 0.8233 -0.2132 0.5261
vn 0.0769 0.7439 -0.6638
vn 0.2091 0.7498 -0.6278
vn 0.4641 0.7184 -0.5183
vn 0.6867 0.6392 -0.3462
vn 0.8389 0.5204 -0.1597
vn 0.1078 0.8863 -0.4504
vn 0.2325 0.8781 -0.4182
vn 0.4771 0.8214 -0.3124
vn 0.7354 0.6590 -0.1575
vn 0.9141 0.4032 0.0435
vn 0.9361 0.2292 0.2667
vn 0.8311 0.5531 0.0571
vn 0.8641 0.4204 0.2766
vn 0.1433 0.9690 -0.2015
vn 0.2668 0.9503 -0.1605
vn 0.4795 0.8703 -0.1126
vn 0.1646 0.9838 0.0713
vn 0.2871 0.9544 0.0815
vn 0.5028 0.8599 0.0882
vn 0.2978 0.8922 0.3395
vn 0.5220 0.7925 0.3153
vn 0.1687 0.9283 0.3314
vn 0.6385 0.7596 -0.1241
vn 0.6911 0.7182 0.0816
vn 0.7246 0.6244 0.2918
vn 0.1575 0.7978 0.5819
vn 0.3053 0.7554 0.5798
vn 0.5441 0.6530 0.5268
vn 0.7227 0.4877 0.4897
vn 0.8452 0.2675 0.4627
vn 0.8818 -0.0049 0.4716
vn 0.2161 0.3228 0.9215
vn 0.2799 -0.0864 0.9561
vn 0.4434 -0.1733 0.8794
vn 0.4014 0.2923 0.8680
vn 0.4684 -0.6526 0.5956
vn 0.6671 -0.0508 0.7432
vn 0.3223 -0.6123 0.7219
vn 0.3547 0.5400 0.7633
vn 0.1661 0.5894 0.7906
vn 0.6298 0.4109 0.6592
vn 0.7814 0.0483 0.6221
vn 0.7619 -0.2642 0.5914
vn 0.6305 -0.5148 0.5809
vn 0.5920 -0.5121 0.6223
vn 0.3957 -0.7777 0.4884
vn 0.3004 -0.9082 0.2915
vn 0.1335 -0.7177 0.6834
vn 0.1602 -0.9257 0.3426
vn 0.2737 -0.8760 0.3972
vn 0.2087 -0.9510 0.2280
vn 0.1677 0.8666 -0.4699
vn 0.0918 0.8791 -0.4677
vn 0.2459 0.7748 -0.5824
vn 0.1255 0.7967 -0.5912
vn 0.5089 0.7393 -0.4410
vn 0.3790 0.7925 -0.4779
vn 0.1797 0.7272 -0.6625
vn 0.0675 0.7469 -0.6615
vn 0.0656 0.8171 -0.5728
vn 0.0367 0.7535 -0.6564
vn 0.8506 0.5233 -0.0519
vn 0.2429 0.1106 -0.9637
vn 0.1044 0.1231 -0.9869
vn 0.3312 0.7905 -0.5152
vn 0.5228 0.0653 -0.8499
vn 0.9985 -0.0174 0.0518
vn 0.6782 0.6806 -0.2773
vn 0.6495 0.6886 -0.3223
vn 0.8714 0.4807 -0.0985
vn 0.1167 -0.5744 0.8102
vn 0.7754 0.6091 -0.1664
vn 0.0912 0.8260 -0.5563
vn 0.7111 0.6262 -0.3197
vn 0.8770 0.4657 -0.1183
vt 0.287679 0.458882
vt 0.310193 0.458493
vt 0.310065 0.464860
vt 0.287639 0.460729
vt 0.267458 0.438377
vt 0.287462 0.437502
vt 0.282431 0.459166
vt 0.266664 0.454810
vt 0.307137 0.436442
vt 0.336604 0.436034
vt 0.335917 0.458676
vt 0.309230 0.413730
vt 0.337285 0.413560
vt 0.288447 0.415633
vt 0.268656 0.416411
vt 0.249199 0.416893
vt 0.247327 0.439045
vt 0.228587 0.439054
vt 0.227512 0.438596
vt 0.230817 0.417273
vt 0.311844 0.394786
vt 0.337878 0.394009
vt 0.290071 0.394191
vt 0.270270 0.394043
vt 0.250808 0.394096
vt 0.233007 0.395704
vt 0.313946 0.370921
vt 0.338537 0.372239
vt 0.290674 0.371817
vt 0.272281 0.371019
vt 0.251937 0.369263
vt 0.231904 0.383278
vt 0.238232 0.369681
vt 0.279710 0.348070
vt 0.298219 0.348323
vt 0.258768 0.343559
vt 0.776021 0.099982
vt 0.777800 0.107953
vt 0.757156 0.110900
vt 0.754024 0.105812
vt 0.639523 0.092925
vt 0.636679 0.112699
vt 0.617135 0.111248
vt 0.622905 0.087651
vt 0.657650 0.096730
vt 0.654930 0.114236
vt 0.672336 0.113864
vt 0.674672 0.099032
vt 0.690778 0.114074
vt 0.690751 0.117531
vt 0.672445 0.117735
vt 0.692478 0.101059
vt 0.710785 0.102747
vt 0.709626 0.115129
vt 0.730391 0.104035
vt 0.729964 0.114968
vt 0.716462 0.116213
vt 0.739601 0.113277
vt 0.634414 0.062844
vt 0.649734 0.072320
vt 0.663769 0.079451
vt 0.679410 0.084526
vt 0.695704 0.088145
vt 0.712350 0.090449
vt 0.729982 0.091407
vt 0.748644 0.092624
vt 0.649125 0.043846
vt 0.662935 0.055962
vt 0.674875 0.065195
vt 0.687055 0.072273
vt 0.699089 0.076402
vt 0.669409 0.028318
vt 0.677947 0.041252
vt 0.688950 0.052056
vt 0.700715 0.066089
vt 0.714532 0.079106
vt 0.730773 0.079977
vt 0.717221 0.067280
vt 0.732985 0.068697
vt 0.693074 0.016984
vt 0.700250 0.030993
vt 0.704732 0.045115
vt 0.718878 0.012285
vt 0.719986 0.027033
vt 0.719745 0.041061
vt 0.737381 0.027743
vt 0.735379 0.041307
vt 0.738136 0.013366
vt 0.703828 0.055817
vt 0.719098 0.055146
vt 0.733749 0.057059
vt 0.760086 0.019775
vt 0.756168 0.034231
vt 0.752216 0.049248
vt 0.749484 0.058262
vt 0.746357 0.069710
vt 0.746186 0.081401
vt 0.794121 0.046528
vt 0.801657 0.060795
vt 0.790108 0.065117
vt 0.780339 0.054942
vt 0.790436 0.071604
vt 0.774691 0.067300
vt 0.801657 0.068010
vt 0.770243 0.044658
vt 0.780659 0.031986
vt 0.759409 0.056634
vt 0.759393 0.071183
vt 0.759820 0.079983
vt 0.774709 0.079178
vt 0.764138 0.090647
vt 0.778947 0.088845
vt 0.791346 0.080928
vt 0.801657 0.101175
vt 0.801657 0.091882
vt 0.801657 0.074819
vt 0.801657 0.082565
vt 0.317210 0.349031
vt 0.339115 0.353186
vt 0.303478 0.318874
vt 0.321601 0.323850
vt 0.258946 0.340577
vt 0.284238 0.320929
vt 0.305598 0.310905
vt 0.330217 0.306640
vt 0.339826 0.329720
vt 0.340528 0.306567
vt 0.226325 0.398584
vt 0.636942 0.116643
vt 0.617018 0.115355
vt 0.291435 0.316804
vt 0.654864 0.117458
vt 0.709405 0.116707
vt 0.240837 0.365455
vt 0.256476 0.342914
vt 0.218375 0.416830
vt 0.801657 0.106672
vt 0.227441 0.439055
vt 0.335667 0.466931
vt 0.246600 0.447193
vt 0.210737 0.430565
s 1
f 5/1/1 4/2/2 139/3/3 141/4/4
f 8/5/5 7/6/6 5/1/1 136/7/7 138/8/8
f 6/9/9 4/2/2 5/1/1 7/6/6
f 4/2/2 6/9/9 99/10/10 98/11/11
f 99/10/10 6/9/9 13/12/12 14/13/13
f 6/9/9 7/6/6 12/14/14 13/12/12
f 7/6/6 8/5/5 11/15/15 12/14/14
f 10/16/16 11/15/15 8/5/5 9/17/17
f 9/17/17 133/18/18 134/19/19 1/20/20 10/16/16
f 18/21/21 19/22/22 14/13/13 13/12/12
f 17/23/23 18/21/21 13/12/12 12/14/14
f 12/14/14 11/15/15 16/24/24 17/23/23
f 15/25/25 16/24/24 11/15/15 10/16/16
f 10/16/16 1/20/20 2/26/26 15/25/25
f 19/22/22 18/21/21 23/27/27 24/28/28
f 22/29/29 23/27/27 18/21/21 17/23/23
f 17/23/23 16/24/24 21/30/30 22/29/29
f 20/31/31 21/30/30 16/24/24 15/25/25
f 15/25/25 2/26/26 128/32/32 118/33/33 20/31/31
f 22/29/29 21/30/30 26/34/34 27/35/35
f 25/36/36 26/34/34 21/30/30 20/31/31
f 30/37/37 110/38/38 122/39/39 31/40/40
f 34/41/41 33/42/42 100/43/43 101/44/44
f 34/41/41 37/45/45 35/46/46 33/42/42
f 36/47/47 35/46/46 37/45/45 38/48/48
f 36/47/47 39/49/49 119/50/50 115/51/51
f 38/48/48 40/52/52 39/49/49 36/47/47
f 40/52/52 41/53/53 32/54/54 39/49/49
f 41/53/53 42/55/55 123/56/56 120/57/57 32/54/54
f 42/55/55 31/40/40 112/58/58 123/56/56
f 102/59/59 43/60/60 34/41/41 101/44/44
f 37/45/45 34/41/41 43/60/60 44/61/61
f 38/48/48 37/45/45 44/61/61 45/62/62
f 45/62/62 46/63/63 40/52/52 38/48/48
f 46/63/63 47/64/64 41/53/53 40/52/52
f 47/64/64 48/65/65 42/55/55 41/53/53
f 42/55/55 48/65/65 49/66/66 31/40/40
f 43/60/60 102/59/59 103/67/67 50/68/68
f 50/68/68 51/69/69 44/61/61 43/60/60
f 45/62/62 44/61/61 51/69/69 52/70/70
f 52/70/70 53/71/71 46/63/63 45/62/62
f 103/67/67 54/72/72 55/73/73 50/68/68
f 51/69/69 50/68/68 55/73/73 56/74/74
f 56/74/74 57/75/75 52/70/70
f 47/64/64 46/63/63 53/71/71 58/76/76
f 48/65/65 47/64/64 58/76/76 59/77/77
f 53/71/71 52/70/70 57/75/75
f 58/76/76 53/71/71 57/75/75 60/78/78
f 60/78/78 61/79/79 59/77/77 58/76/76
f 55/73/73 54/72/72 104/80/80 62/81/81
f 56/74/74 55/73/73 62/81/81 63/82/82
f 105/83/83 64/84/84 62/81/81 104/80/80
f 62/81/81 64/84/84 65/85/85 63/82/82
f 64/84/84 67/86/86 66/87/87 65/85/85
f 106/88/88 67/86/86 64/84/84 105/83/83
f 56/74/74 68/89/89 57/75/75
f 69/90/90 68/89/89 63/82/82 65/85/85
f 70/91/91 69/90/90 65/85/85 66/87/87
f 61/79/79 60/78/78 69/90/90 70/91/91
f 68/89/89 69/90/90 60/78/78 57/75/75
f 67/86/86 106/88/88 107/92/92 72/93/93
f 72/93/93 71/94/94 66/87/87 67/86/86
f 66/87/87 71/94/94 73/95/95 70/91/91
f 70/91/91 73/95/95 74/96/96 61/79/79
f 75/97/97 59/77/77 61/79/79 74/96/96
f 75/97/97 49/66/66 48/65/65 59/77/77
f 76/98/98 108/99/99 78/100/100 77/101/101
f 78/100/100 80/102/102 79/103/103
f 78/100/100 108/99/99 81/104/104
f 77/101/101 83/105/105 82/106/106 76/98/98
f 72/93/93 107/92/92 82/106/106 83/105/105
f 71/94/94 72/93/93 83/105/105 84/107/107
f 83/105/105 77/101/101 79/103/103 84/107/107
f 73/95/95 84/107/107 85/108/108 74/96/96
f 84/107/107 79/103/103 85/108/108
f 86/109/109 75/97/97 74/96/96 85/108/108
f 87/110/110 86/109/109 85/108/108 79/103/103
f 79/103/103 80/102/102 87/110/110
f 49/66/66 75/97/97 86/109/109 88/111/111
f 88/111/111 30/37/37 31/40/40
f 87/110/110 89/112/112 88/111/111 86/109/109
f 87/110/110 80/102/102 90/113/113 89/112/112
f 89/112/112 30/37/37 88/111/111
f 29/114/114 30/37/37 89/112/112 91/115/115
f 91/115/115 89/112/112 90/113/113
f 109/116/116 92/117/117 90/113/113 80/102/102
f 80/102/102 81/104/104 109/116/116
f 49/66/66 88/111/111 31/40/40
f 23/27/27 93/118/118 28/119/119 24/28/28
f 27/35/35 93/118/118 23/27/27 22/29/29
f 95/120/120 94/121/121 93/118/118 27/35/35
f 25/36/36 131/122/122 114/123/123 26/34/34
f 94/121/121 95/120/120 127/124/124 117/125/125
f 84/107/107 73/95/95 71/94/94
f 96/126/126 28/119/119 93/118/118 94/121/121
f 94/121/121 117/125/125 97/127/127 96/126/126
f 2/26/26 130/128/128 128/32/32
f 80/102/102 78/100/100 81/104/104
f 77/101/101 78/100/100 79/103/103
f 92/117/117 91/115/115 90/113/113
f 63/82/82 68/89/89 56/74/74
f 51/69/69 56/74/74 52/70/70
f 111/129/129 116/130/130 100/43/43 33/42/42
f 122/39/39 112/58/58 31/40/40
f 114/123/123 124/131/131 95/120/120 27/35/35 26/34/34
f 126/132/132 111/129/129 33/42/42 35/46/46
f 120/57/57 129/133/133 32/54/54
f 118/33/33 132/134/134 121/135/135 25/36/36 20/31/31
f 124/131/131 127/124/124 95/120/120
f 113/136/136 130/128/128 2/26/26 1/20/20
f 115/51/51 126/132/132 35/46/46 36/47/47
f 129/133/133 119/50/50 39/49/49 32/54/54
f 121/135/135 131/122/122 25/36/36
f 125/137/137 110/38/38 30/37/37 29/114/114
f 134/19/19 133/18/18 3/138/138
f 137/139/139 139/3/3 4/2/2 98/11/11
f 141/4/4 136/7/7 5/1/1
f 138/8/8 135/140/140 9/17/17 8/5/5
f 135/140/140 133/18/18 9/17/17
f 134/19/19 140/141/141 113/136/136 1/20/20
