# Blender 3.6.1
# www.blender.org
o Object001.010
v -0.001213 0.197889 -0.193656
v -0.001213 0.173805 -0.266217
v -0.001213 0.141075 -0.344877
v -0.001213 0.108654 -0.412189
v -0.001213 0.020268 -0.625938
v -0.001213 0.284037 -0.912401
v -0.001213 0.148485 -0.506750
v -0.001213 0.063090 -0.503355
v -0.001213 0.211784 -0.541642
v -0.001213 0.038562 -0.594133
v -0.001213 0.043502 -0.558162
v -0.001213 0.062029 -0.490695
v -0.001213 0.003825 -0.557543
v -0.367100 0.020169 -0.166244
v -0.360834 0.042473 -0.083066
v -0.359138 0.067597 0.001006
v -0.098403 0.249436 -0.021499
v -0.001213 0.255938 -0.027381
v -0.180675 0.230536 -0.006768
v -0.311174 0.120251 -0.029762
v -0.252483 0.163548 -0.058395
v -0.185680 0.195404 -0.081654
v -0.114224 0.214871 -0.099219
v -0.001213 0.223517 -0.109978
v -0.111753 0.188008 -0.184083
v -0.188886 0.167280 -0.162188
v -0.256569 0.134854 -0.139153
v -0.314780 0.091709 -0.112141
v -0.105888 0.165159 -0.255102
v -0.189962 0.141783 -0.242443
v -0.260185 0.108790 -0.223121
v -0.321384 0.066245 -0.198285
v -0.102182 0.131194 -0.342639
v -0.193331 0.109439 -0.324319
v -0.260638 0.079703 -0.309744
v -0.328983 0.036582 -0.292108
v -0.238659 0.053229 -0.399645
v -0.168568 0.077776 -0.413231
v -0.312792 0.008995 -0.393862
v -0.103418 0.029647 -0.635818
v -0.182667 0.024135 -0.685104
v -0.265474 0.010388 -0.860758
v -0.086509 0.018863 -1.101460
v -0.001213 0.016966 -1.110556
v -0.001213 0.093779 -1.082333
v -0.079405 0.093219 -1.076276
v -0.162818 0.017476 -1.071657
v -0.221044 0.021495 -1.018789
v -0.157250 0.093371 -1.050206
v -0.215937 0.090588 -0.999901
v -0.257768 0.019749 -0.944102
v -0.250727 0.080646 -0.927424
v -0.259663 0.066842 -0.846408
v -0.241781 0.049386 -0.762914
v -0.001213 0.173482 -1.035693
v -0.079625 0.170858 -1.031232
v -0.146415 0.163930 -1.011648
v -0.202771 0.153305 -0.965753
v -0.236306 0.137315 -0.900539
v -0.248080 0.120709 -0.827210
v -0.237674 0.103199 -0.749311
v -0.202246 0.078123 -0.678175
v -0.001213 0.233861 -0.982261
v -0.078877 0.231973 -0.975685
v -0.141916 0.219736 -0.955494
v -0.188778 0.200717 -0.918886
v -0.215962 0.184247 -0.872147
v -0.070069 0.278788 -0.908309
v -0.130281 0.262422 -0.884163
v -0.191418 0.221509 -0.852923
v -0.230384 0.166975 -0.804719
v -0.225080 0.149726 -0.731402
v -0.205621 0.211321 -0.779396
v -0.202533 0.191636 -0.708958
v -0.001213 0.315531 -0.828261
v -0.067599 0.306885 -0.816990
v -0.126575 0.281567 -0.813024
v -0.001213 0.322015 -0.738291
v -0.064203 0.311208 -0.738639
v -0.120399 0.286198 -0.746435
v -0.062042 0.297005 -0.671249
v -0.117621 0.273229 -0.680126
v -0.001213 0.308738 -0.673064
v -0.163319 0.253777 -0.827570
v -0.171038 0.250998 -0.759134
v -0.172582 0.231931 -0.694793
v -0.001213 0.271068 -0.602470
v -0.064512 0.258408 -0.601543
v -0.124105 0.228458 -0.613586
v -0.156218 0.205608 -0.628408
v -0.187625 0.170073 -0.651760
v -0.203627 0.125118 -0.668211
v -0.001213 0.089818 -0.493165
v -0.054631 0.093138 -0.509530
v -0.070069 0.152499 -0.523116
v -0.112372 0.122085 -0.548088
v -0.056175 0.070906 -0.524081
v -0.069606 0.206226 -0.552758
v -0.131515 0.192639 -0.588576
v -0.162084 0.141654 -0.602779
v -0.167333 0.108731 -0.617755
v -0.117003 0.084184 -0.576225
v -0.152203 0.066738 -0.631340
v -0.096623 0.054541 -0.598456
v -0.048765 0.051839 -0.556463
v -0.001213 0.049292 -0.526937
v -0.092301 0.094759 -0.420622
v -0.150659 0.021425 -0.514585
v -0.077172 0.045355 -0.505618
v -0.220899 0.003107 -1.019400
v -0.258021 0.003107 -0.833008
v -0.141623 0.003107 -0.538839
v -0.257533 0.003107 -0.945491
v -0.170431 0.003107 -0.685715
v -0.243049 0.003107 -0.775004
v -0.379507 0.003107 -0.144777
v -0.001213 0.003107 -1.112446
v -0.162400 0.003107 -1.072827
v -0.042853 0.003107 -0.556002
v -0.378117 0.003107 -0.211821
v -0.218900 0.003107 -0.740920
v -0.094095 0.003107 -0.651483
v -0.312580 0.003107 -0.404403
v -0.197823 0.003107 -0.514915
v -0.320134 0.003107 -0.393268
v -0.001213 0.003106 -0.639908
v -0.368370 0.003107 -0.271921
v -0.265561 0.003107 -0.862536
v -0.384669 0.003107 -0.063597
v -0.225190 0.003107 -0.496491
v -0.087706 0.003107 -1.103137
v -0.362072 0.003107 -0.290888
v -0.252569 0.191299 -0.000767
v -0.198420 0.223031 -0.000767
v -0.098425 0.263127 -0.000767
v -0.001213 0.274132 -0.000767
v -0.392838 0.003107 -0.000767
v -0.312584 0.133878 -0.000767
v -0.180775 0.234459 -0.000768
v -0.359173 0.067067 -0.000767
v -0.356374 0.070631 -0.000767
vn -0.3865 0.8114 -0.4384
vn -0.3640 0.7766 -0.5142
vn -0.1783 0.8184 -0.5463
vn -0.1879 0.8678 -0.4601
vn -0.5728 0.7631 -0.2992
vn -0.5580 0.7515 -0.3521
vn -0.4834 0.7908 -0.3753
vn -0.4018 0.8564 -0.3241
vn -0.2144 0.9177 -0.3345
vn -0.1012 0.9367 -0.3351
vn -0.0942 0.8791 -0.4672
vn -0.1086 0.9461 -0.3053
vn -0.2148 0.9285 -0.3028
vn -0.4023 0.8717 -0.2797
vn -0.5626 0.7927 -0.2349
vn -0.7028 0.6886 -0.1788
vn -0.7198 0.6443 -0.2583
vn -0.8196 0.5601 -0.1204
vn -0.8069 0.5700 -0.1553
vn -0.7751 0.6037 -0.1865
vn -0.1092 0.9326 -0.3441
vn -0.2044 0.9199 -0.3347
vn -0.3839 0.8731 -0.3006
vn -0.5386 0.8071 -0.2420
vn -0.6721 0.7212 -0.1678
vn -0.7851 0.6139 -0.0820
vn -0.1921 0.8990 -0.3936
vn -0.1023 0.9100 -0.4018
vn -0.3627 0.8606 -0.3574
vn -0.5022 0.8089 -0.3056
vn -0.6360 0.7329 -0.2418
vn -0.7042 0.6881 -0.1749
vn -0.7302 0.6742 -0.1111
vn -0.3061 0.8394 -0.4491
vn -0.4407 0.7984 -0.4103
vn -0.5702 0.7346 -0.3678
vn -0.1889 0.4094 -0.8926
vn -0.0766 0.4192 -0.9047
vn -0.0952 0.2274 -0.9691
vn -0.2228 0.2177 -0.9502
vn -0.5134 0.1695 -0.8412
vn -0.4711 0.3811 -0.7955
vn -0.7876 0.1280 -0.6027
vn -0.7615 0.3310 -0.5573
vn -0.7963 0.0226 -0.6045
vn -0.9594 0.0113 -0.2820
vn -0.9582 0.0919 -0.2710
vn -0.9383 0.2474 -0.2417
vn -0.9967 0.0262 0.0769
vn -0.9902 0.1246 0.0633
vn -0.6627 -0.3759 0.6477
vn -0.9252 -0.0632 0.3741
vn -0.9212 -0.0523 0.3854
vn -0.7997 -0.1590 0.5790
vn -0.0703 0.5869 -0.8066
vn -0.1836 0.5850 -0.7899
vn -0.4453 0.5670 -0.6929
vn -0.7231 0.5061 -0.4701
vn -0.8963 0.3953 -0.2008
vn -0.9661 0.2540 0.0473
vn -0.9526 0.0371 0.3021
vn -0.8233 -0.2132 0.5261
vn -0.0769 0.7439 -0.6638
vn -0.2091 0.7498 -0.6278
vn -0.4641 0.7184 -0.5183
vn -0.6867 0.6392 -0.3462
vn -0.8389 0.5204 -0.1597
vn -0.2325 0.8781 -0.4182
vn -0.1078 0.8863 -0.4504
vn -0.4771 0.8214 -0.3124
vn -0.7354 0.6590 -0.1575
vn -0.9141 0.4032 0.0435
vn -0.9361 0.2292 0.2667
vn -0.8311 0.5531 0.0571
vn -0.8641 0.4204 0.2766
vn -0.2668 0.9503 -0.1605
vn -0.1433 0.9690 -0.2015
vn -0.4795 0.8703 -0.1126
vn -0.1646 0.9838 0.0713
vn -0.2871 0.9544 0.0815
vn -0.5028 0.8599 0.0882
vn -0.5220 0.7925 0.3153
vn -0.2978 0.8922 0.3395
vn -0.1687 0.9283 0.3314
vn -0.6385 0.7596 -0.1241
vn -0.6911 0.7182 0.0816
vn -0.7246 0.6244 0.2918
vn -0.1575 0.7978 0.5819
vn -0.3053 0.7554 0.5798
vn -0.5441 0.6530 0.5268
vn -0.7227 0.4877 0.4897
vn -0.8452 0.2675 0.4627
vn -0.8818 -0.0049 0.4716
vn -0.4434 -0.1733 0.8794
vn -0.2799 -0.0864 0.9561
vn -0.2161 0.3228 0.9215
vn -0.4014 0.2923 0.8680
vn -0.4684 -0.6526 0.5956
vn -0.6671 -0.0508 0.7432
vn -0.3223 -0.6123 0.7219
vn -0.1661 0.5894 0.7906
vn -0.3547 0.5400 0.7633
vn -0.6298 0.4109 0.6592
vn -0.7814 0.0483 0.6221
vn -0.7619 -0.2642 0.5914
vn -0.6305 -0.5148 0.5809
vn -0.5920 -0.5121 0.6223
vn -0.3135 -0.6477 0.6944
vn -0.3957 -0.7777 0.4884
vn -0.3004 -0.9082 0.2915
vn -0.1335 -0.7177 0.6834
vn -0.1602 -0.9257 0.3426
vn -0.2737 -0.8760 0.3972
vn -0.2087 -0.9510 0.2280
vn -0.0918 0.8791 -0.4677
vn -0.1677 0.8666 -0.4699
vn -0.2459 0.7748 -0.5824
vn -0.1255 0.7967 -0.5912
vn -0.0675 0.7469 -0.6615
vn -0.1797 0.7272 -0.6625
vn -0.0656 0.8171 -0.5728
vn -0.0367 0.7535 -0.6564
vn -0.8506 0.5233 -0.0519
vn -0.5203 -0.4463 0.7281
vn -0.2527 -0.5269 0.8115
vn -0.8714 0.4807 -0.0985
vn -0.8770 0.4657 -0.1183
vn -0.1044 0.1231 -0.9869
vn -0.2429 0.1106 -0.9637
vn -0.3312 0.7905 -0.5152
vn -0.3790 0.7925 -0.4779
vn -0.5228 0.0653 -0.8499
vn -0.9985 -0.0174 0.0518
vn -0.9721 0.0008 0.2345
vn -0.5089 0.7393 -0.4410
vn -0.6495 0.6886 -0.3223
vn -0.6782 0.6806 -0.2773
vn -0.1167 -0.5744 0.8102
vn -0.7111 0.6262 -0.3197
vn -0.0912 0.8260 -0.5563
vn -0.7754 0.6091 -0.1664
vt 0.384055 0.461803
vt 0.383983 0.463650
vt 0.361348 0.466414
vt 0.361605 0.460052
vt 0.405480 0.442560
vt 0.405278 0.459012
vt 0.389276 0.462405
vt 0.385566 0.440476
vt 0.365991 0.438226
vt 0.336604 0.436034
vt 0.335917 0.458676
vt 0.337285 0.413560
vt 0.365278 0.415428
vt 0.385907 0.418587
vt 0.405615 0.420563
vt 0.425007 0.422222
vt 0.425534 0.444447
vt 0.443333 0.423715
vt 0.445340 0.445198
vt 0.444239 0.445591
vt 0.337878 0.394009
vt 0.363817 0.396361
vt 0.385585 0.397086
vt 0.405359 0.398138
vt 0.424782 0.399370
vt 0.442453 0.402053
vt 0.363163 0.372413
vt 0.338537 0.372239
vt 0.386339 0.374717
vt 0.404746 0.375034
vt 0.425160 0.374514
vt 0.438814 0.375761
vt 0.444307 0.389717
vt 0.380231 0.350809
vt 0.398721 0.351677
vt 0.419897 0.348443
vt 0.963790 0.092925
vt 0.980408 0.087651
vt 0.986179 0.111248
vt 0.966634 0.112699
vt 0.948384 0.114236
vt 0.945664 0.096730
vt 0.930978 0.113864
vt 0.928642 0.099032
vt 0.930869 0.117735
vt 0.912563 0.117531
vt 0.912535 0.114074
vt 0.910836 0.101059
vt 0.893687 0.115129
vt 0.892529 0.102747
vt 0.849289 0.105812
vt 0.872923 0.104035
vt 0.873350 0.114968
vt 0.863712 0.113277
vt 0.968900 0.062844
vt 0.953580 0.072320
vt 0.939544 0.079451
vt 0.923904 0.084526
vt 0.907610 0.088145
vt 0.890963 0.090449
vt 0.873332 0.091407
vt 0.854670 0.092624
vt 0.954188 0.043846
vt 0.940379 0.055962
vt 0.928439 0.065195
vt 0.916259 0.072273
vt 0.904225 0.076402
vt 0.925367 0.041252
vt 0.933904 0.028318
vt 0.914364 0.052056
vt 0.902598 0.066089
vt 0.888782 0.079106
vt 0.872541 0.079977
vt 0.886093 0.067280
vt 0.870329 0.068697
vt 0.903064 0.030993
vt 0.910240 0.016984
vt 0.898581 0.045115
vt 0.884436 0.012285
vt 0.883328 0.027033
vt 0.883569 0.041061
vt 0.867935 0.041307
vt 0.865933 0.027743
vt 0.865178 0.013366
vt 0.899485 0.055817
vt 0.884215 0.055146
vt 0.869564 0.057059
vt 0.843227 0.019775
vt 0.847146 0.034231
vt 0.851097 0.049248
vt 0.853830 0.058262
vt 0.856957 0.069710
vt 0.857127 0.081401
vt 0.813206 0.065117
vt 0.801657 0.060795
vt 0.809193 0.046528
vt 0.822974 0.054942
vt 0.812878 0.071604
vt 0.828623 0.067300
vt 0.801657 0.068010
vt 0.822655 0.031986
vt 0.833071 0.044658
vt 0.843904 0.056634
vt 0.843920 0.071183
vt 0.843493 0.079983
vt 0.828605 0.079178
vt 0.839176 0.090647
vt 0.827293 0.099982
vt 0.824366 0.088845
vt 0.811968 0.080928
vt 0.801657 0.101175
vt 0.801657 0.091882
vt 0.801657 0.074819
vt 0.801657 0.082565
vt 0.339115 0.353186
vt 0.361231 0.350365
vt 0.376764 0.321095
vt 0.358373 0.324964
vt 0.350816 0.307264
vt 0.375131 0.313012
vt 0.339826 0.329720
vt 0.340528 0.306567
vt 0.448948 0.405332
vt 0.846158 0.110900
vt 0.825513 0.107953
vt 0.455779 0.424026
vt 0.462571 0.438198
vt 0.986296 0.115355
vt 0.966372 0.116643
vt 0.388911 0.319759
vt 0.395845 0.324312
vt 0.948450 0.117458
vt 0.893909 0.116707
vt 0.886852 0.116213
vt 0.419900 0.345456
vt 0.422224 0.347938
vt 0.436469 0.371385
vt 0.801657 0.106672
vt 0.425767 0.452623
vt 0.335667 0.466931
vt 0.445383 0.445661
s 1
f 19/1/1 139/2/2 135/3/3 17/4/4
f 21/5/5 133/6/6 134/7/7 19/1/1 22/8/8
f 19/1/1 17/4/4 23/9/9 22/8/8
f 24/10/10 23/9/9 17/4/4 18/11/11
f 24/10/10 1/12/12 25/13/13 23/9/9
f 23/9/9 25/13/13 26/14/14 22/8/8
f 22/8/8 26/14/14 27/15/15 21/5/5
f 28/16/16 20/17/17 21/5/5 27/15/15
f 20/17/17 28/16/16 15/18/18 140/19/19 141/20/20
f 1/12/12 2/21/21 29/22/22 25/13/13
f 25/13/13 29/22/22 30/23/23 26/14/14
f 26/14/14 30/23/23 31/24/24 27/15/15
f 27/15/15 31/24/24 32/25/25 28/16/16
f 28/16/16 32/25/25 14/26/26 15/18/18
f 33/27/27 29/22/22 2/21/21 3/28/28
f 34/29/29 30/23/23 29/22/22 33/27/27
f 30/23/23 34/29/29 35/30/30 31/24/24
f 36/31/31 32/25/25 31/24/24 35/30/30
f 32/25/25 36/31/31 127/32/32 120/33/33 14/26/26
f 34/29/29 38/34/34 37/35/35 35/30/30
f 39/36/36 36/31/31 35/30/30 37/35/35
f 46/37/37 45/38/38 44/39/39 43/40/40
f 47/41/41 49/42/42 46/37/37 43/40/40
f 48/43/43 50/44/44 49/42/42 47/41/41
f 48/43/43 110/45/45 113/46/46 51/47/47
f 50/44/44 48/43/43 51/47/47 52/48/48
f 52/48/48 51/47/47 42/49/49 53/50/50
f 41/51/51 54/52/52 115/53/53 121/54/54
f 55/55/55 45/38/38 46/37/37 56/56/56
f 49/42/42 57/57/57 56/56/56 46/37/37
f 57/57/57 49/42/42 50/44/44 58/58/58
f 58/58/58 50/44/44 52/48/48 59/59/59
f 59/59/59 52/48/48 53/50/50 60/60/60
f 60/60/60 53/50/50 54/52/52 61/61/61
f 54/52/52 41/51/51 62/62/62 61/61/61
f 63/63/63 55/55/55 56/56/56 64/64/64
f 64/64/64 56/56/56 57/57/57 65/65/65
f 58/58/58 66/66/66 65/65/65 57/57/57
f 59/59/59 67/67/67 66/66/66 58/58/58
f 68/68/68 6/69/69 63/63/63 64/64/64
f 68/68/68 64/64/64 65/65/65 69/70/70
f 70/71/71 69/70/70 66/66/66
f 60/60/60 71/72/72 67/67/67 59/59/59
f 61/61/61 72/73/73 71/72/72 60/60/60
f 66/66/66 67/67/67 70/71/71
f 70/71/71 67/67/67 71/72/72 73/74/74
f 73/74/74 71/72/72 72/73/73 74/75/75
f 68/68/68 76/76/76 75/77/77 6/69/69
f 69/70/70 77/78/78 76/76/76 68/68/68
f 78/79/79 75/77/77 76/76/76 79/80/80
f 80/81/81 79/80/80 76/76/76 77/78/78
f 82/82/82 81/83/83 79/80/80 80/81/81
f 79/80/80 81/83/83 83/84/84 78/79/79
f 84/85/85 69/70/70 70/71/71
f 85/86/86 80/81/81 77/78/78 84/85/85
f 86/87/87 82/82/82 80/81/81 85/86/86
f 74/75/75 86/87/87 85/86/86 73/74/74
f 84/85/85 70/71/71 73/74/74 85/86/86
f 87/88/88 83/84/84 81/83/83 88/89/89
f 82/82/82 89/90/90 88/89/89 81/83/83
f 82/82/82 86/87/87 90/91/91 89/90/90
f 86/87/87 74/75/75 91/92/92 90/91/91
f 92/93/93 91/92/92 74/75/75 72/73/73
f 61/61/61 62/62/62 92/93/93 72/73/73
f 94/94/94 93/95/95 7/96/96 95/97/97
f 97/98/98 94/94/94 96/99/99
f 93/95/95 94/94/94 8/100/100
f 9/101/101 98/102/102 95/97/97 7/96/96
f 88/89/89 98/102/102 9/101/101 87/88/88
f 89/90/90 99/103/103 98/102/102 88/89/89
f 96/99/99 95/97/97 98/102/102 99/103/103
f 90/91/91 91/92/92 100/104/104 99/103/103
f 96/99/99 99/103/103 100/104/104
f 101/105/105 100/104/104 91/92/92 92/93/93
f 102/106/106 96/99/99 100/104/104 101/105/105
f 97/98/98 96/99/99 102/106/106
f 62/62/62 103/107/107 101/105/105 92/93/93
f 40/108/108 103/107/107 41/51/51
f 102/106/106 101/105/105 103/107/107 104/109/109
f 102/106/106 104/109/109 105/110/110 97/98/98
f 40/108/108 104/109/109 103/107/107
f 5/111/111 10/112/112 104/109/109 40/108/108
f 104/109/109 10/112/112 105/110/110
f 106/113/113 97/98/98 105/110/110 11/114/114
f 8/100/100 97/98/98 106/113/113
f 103/107/107 62/62/62 41/51/51
f 33/27/27 3/28/28 4/115/115 107/116/116
f 38/34/34 34/29/29 33/27/27 107/116/116
f 108/117/117 38/34/34 107/116/116 109/118/118
f 109/118/118 119/119/119 112/120/120 108/117/117
f 90/91/91 99/103/103 89/90/90
f 12/121/121 109/118/118 107/116/116 4/115/115
f 109/118/118 12/121/121 13/122/122 119/119/119
f 94/94/94 97/98/98 8/100/100
f 94/94/94 95/97/97 96/99/99
f 10/112/112 11/114/114 105/110/110
f 84/85/85 77/78/78 69/70/70
f 69/70/70 65/65/65 66/66/66
f 120/33/33 116/123/123 14/26/26
f 114/124/124 122/125/125 40/108/108 41/51/51
f 129/126/126 137/127/127 140/19/19 15/18/18
f 117/128/128 131/129/129 43/40/40 44/39/39
f 121/54/54 114/124/124 41/51/51
f 124/130/130 130/131/131 37/35/35 38/34/34 108/117/117
f 131/129/129 118/132/132 47/41/41 43/40/40
f 116/123/123 129/126/126 15/18/18 14/26/26
f 128/133/133 111/134/134 42/49/49
f 130/131/131 123/135/135 39/36/36 37/35/35
f 125/136/136 132/137/137 127/32/32 36/31/31 39/36/36
f 112/120/120 124/130/130 108/117/117
f 111/134/134 115/53/53 54/52/52 53/50/50 42/49/49
f 118/132/132 110/45/45 48/43/43 47/41/41
f 123/135/135 125/136/136 39/36/36
f 113/46/46 128/133/133 42/49/49 51/47/47
f 122/125/125 126/138/138 5/111/111 40/108/108
f 141/20/20 138/139/139 20/17/17
f 135/3/3 136/140/140 18/11/11 17/4/4
f 134/7/7 139/2/2 19/1/1
f 138/139/139 133/6/6 21/5/5 20/17/17
f 141/20/20 140/19/19 16/141/141
